<?xml version="1.0" standalone="no"?><!-- Generator: Gravit.io --><svg xmlns="http://www.w3.org/2000/svg" xmlns:xlink="http://www.w3.org/1999/xlink" style="isolation:isolate" viewBox="34 17 82 82" width="82" height="82"><linearGradient id="_lgradient_5" x1="0%" y1="50%" x2="100%" y2="50%"><stop offset="0.43478260869565216%" stop-opacity="1" style="stop-color:rgb(32,212,251)"/><stop offset="100%" stop-opacity="1" style="stop-color:rgb(98,94,177)"/></linearGradient><path d=" M 88.279 73.005 L 63.28 98 L 88.279 73.005 Z  M 106.161 55.124 L 95.782 65.502 L 106.161 55.124 Z  M 49.139 98 L 60.199 86.94 L 49.139 98 Z  M 35.004 98 L 53.131 79.874 L 35.004 98 Z  M 35 69.714 L 60 44.714 L 35 69.714 Z  M 67.497 37.217 L 77.877 26.837 L 67.497 37.217 Z  M 35 83.856 L 46.057 72.8 L 35 83.856 Z  M 115 18 L 83.181 21.535 L 90.25 28.604 L 51.361 67.494 L 65.503 81.64 L 104.393 42.747 L 111.464 49.819 L 115 18 Z " fill-rule="evenodd" fill="none" vector-effect="non-scaling-stroke" stroke-width="2" stroke="url(#_lgradient_5)" stroke-linejoin="round" stroke-linecap="round" stroke-miterlimit="10"/></svg>