<?xml version="1.0" standalone="no"?><!-- Generator: Gravit.io --><svg xmlns="http://www.w3.org/2000/svg" xmlns:xlink="http://www.w3.org/1999/xlink" style="isolation:isolate" viewBox="283 207.999 82 82.001" width="82" height="82.001"><linearGradient id="_lgradient_4" x1="0%" y1="50%" x2="100%" y2="50%"><stop offset="0.43478260869565216%" stop-opacity="1" style="stop-color:rgb(32,212,251)"/><stop offset="100%" stop-opacity="1" style="stop-color:rgb(98,94,177)"/></linearGradient><path d=" M 339.63 264.626 C 344.808 264.626 348.999 260.426 348.999 255.248 C 348.999 250.074 344.808 245.873 339.63 245.873 C 339.63 238.965 334.029 233.376 327.123 233.376 C 321.295 233.376 316.415 237.358 315.025 242.748 L 313.063 242.748 C 309.609 242.748 306.806 245.545 306.806 249.001 C 302.492 249.001 298.999 252.497 298.999 256.811 C 298.999 261.121 302.492 264.624 306.806 264.624 L 339.63 264.624 L 339.63 264.626 Z  M 322.121 213.999 C 322.121 211.239 324.361 208.999 327.121 208.999 C 329.881 208.999 332.121 211.239 332.121 213.999 C 332.121 216.759 329.881 218.999 327.121 218.999 C 324.361 218.999 322.121 216.759 322.121 213.999 Z  M 294.001 213.999 C 294.001 216.762 291.762 218.999 288.998 218.999 C 286.239 218.999 284 216.762 284 213.999 C 284 211.238 286.239 209 288.998 209 C 291.762 209 294.001 211.238 294.001 213.999 Z  M 364 229 C 364 231.763 361.762 234 359.002 234 C 356.237 234 354.001 231.763 354.001 229 C 354.001 226.238 356.237 224.001 359.002 224.001 C 361.762 224 364 226.238 364 229 Z  M 364 284.002 C 364 286.766 361.762 289 359.002 289 C 356.237 289 354.001 286.766 354.001 284.002 C 354.001 281.237 356.237 279.003 359.002 279.003 C 361.762 279.003 364 281.237 364 284.002 Z  M 293.999 284.002 C 293.999 286.766 291.76 289 288.998 289 C 286.237 289 284 286.766 284 284.002 C 284 281.237 286.237 279.003 288.998 279.003 C 291.76 279.003 293.999 281.237 293.999 284.002 Z  M 327.119 233.377 L 327.119 218.999 L 327.119 233.377 Z  M 299 256.813 L 288.998 256.813 L 288.998 218.999 L 288.998 256.813 L 299 256.813 Z  M 293.999 284.002 L 324.001 284.002 L 324.001 264.626 L 324.001 284.002 L 293.999 284.002 Z  M 348.999 255.252 L 359.002 255.252 L 359.002 234 L 359.002 255.252 L 348.999 255.252 Z  M 355.466 280.466 L 339.626 264.626 L 355.466 280.466 Z " fill-rule="evenodd" fill="none" vector-effect="non-scaling-stroke" stroke-width="2" stroke="url(#_lgradient_4)" stroke-linejoin="miter" stroke-linecap="square" stroke-miterlimit="3"/></svg>