<?xml version="1.0" standalone="no"?><!-- Generator: Gravit.io --><svg xmlns="http://www.w3.org/2000/svg" xmlns:xlink="http://www.w3.org/1999/xlink" style="isolation:isolate" viewBox="153 24.502 82 82" width="82" height="82"><linearGradient id="_lgradient_6" x1="0%" y1="50%" x2="100%" y2="50%"><stop offset="0.43478260869565216%" stop-opacity="1" style="stop-color:rgb(32,212,251)"/><stop offset="100%" stop-opacity="1" style="stop-color:rgb(98,94,177)"/></linearGradient><path d=" M 209.002 88.001 L 234 88.001 L 234 105.502 L 209.002 105.502 L 209.002 88.001 Z  M 209.002 88.001 L 209.002 84.252 C 209.002 82.178 210.68 80.5 212.75 80.5 L 230.252 80.5 C 232.322 80.5 234 82.182 234 84.252 L 234 88.001 L 209.002 88.001 Z  M 216.503 96.748 L 226.5 96.748 L 216.503 96.748 Z  M 154 33.002 L 179.002 33.002 L 179.002 50.501 L 154 50.501 L 154 33.002 Z  M 154 33.002 L 154 29.251 C 154 27.18 155.681 25.502 157.752 25.502 L 175.25 25.502 C 177.324 25.502 179.002 27.18 179.002 29.251 L 179.002 33.002 L 154 33.002 Z  M 161.5 41.747 L 171.501 41.747 L 161.5 41.747 Z  M 171.677 93.003 C 171.677 88.477 169.95 83.952 166.502 80.5 C 173.402 80.5 179.001 86.1 179.001 93.003 L 171.677 93.003 Z  M 171.677 93.003 C 171.677 97.526 169.95 102.05 166.498 105.502 L 166.502 105.502 C 173.402 105.502 179.001 99.907 179.001 93.003 L 171.677 93.003 Z  M 161.32 93.003 C 161.324 88.477 163.049 83.952 166.498 80.5 C 159.598 80.504 154 86.1 154 93.003 L 161.32 93.003 Z  M 161.32 93.003 C 161.32 97.526 163.047 102.05 166.498 105.502 C 159.595 105.502 154 99.907 154 93.003 L 161.32 93.003 Z  M 171.677 93.003 C 171.677 88.477 169.95 83.952 166.498 80.5 C 163.049 83.952 161.324 88.477 161.32 93.003 L 171.677 93.003 Z  M 171.677 93.003 C 171.677 97.526 169.95 102.05 166.498 105.502 C 163.046 102.05 161.32 97.526 161.32 93.003 L 171.677 93.003 Z  M 234 50.503 L 209.002 50.503 L 209.002 25.502 L 221.502 25.502 L 224.004 30.501 L 234 30.501 L 234 50.503 Z  M 181.499 75.501 C 177.354 75.501 173.999 72.143 173.999 68.001 C 173.999 63.86 177.354 60.502 181.499 60.502 C 181.499 54.975 185.978 50.501 191.504 50.501 C 196.162 50.501 200.064 53.688 201.177 58.001 L 202.747 58.001 C 205.511 58.001 207.753 60.239 207.753 63.003 L 207.753 63.003 C 211.206 63.003 213.999 65.8 213.999 69.252 C 213.999 72.7 211.206 75.501 207.753 75.501 L 181.499 75.501 Z  M 166.502 50.501 L 166.502 80.501 L 166.502 50.501 Z  M 221.502 50.501 L 221.502 80.501 L 221.502 50.501 Z  M 178.998 93 L 208.998 93 L 178.998 93 Z  M 178.998 38.002 L 209.002 38.002 L 178.998 38.002 Z " fill-rule="evenodd" fill="none"  stroke-width="2" stroke="url(#_lgradient_6)" stroke-linejoin="miter" stroke-linecap="square" stroke-miterlimit="3"/></svg>
