<?xml version="1.0" standalone="no"?><!-- Generator: Gravit.io -->
<svg xmlns="http://www.w3.org/2000/svg" xmlns:xlink="http://www.w3.org/1999/xlink" style="isolation:isolate" viewBox="0 0 82 82" width="82" height="82">
<linearGradient id="_lgradient_8" x1="0%" y1="50%" x2="100%" y2="50%"><stop offset="0.43478260869565216%" stop-opacity="1" style="stop-color:rgb(32,212,251)"/>
<stop offset="100%" stop-opacity="1" style="stop-color:rgb(98,94,177)"/>
</linearGradient><path d=" M 24.341 70.211 L 58.598 70.211 L 58.598 80 L 24.341 80 L 24.341 70.211 Z  M 39.019 60.425 L 58.596 60.425 L 58.596 70.213 L 39.019 70.213 L 39.019 60.425 Z  M 24.341 60.425 L 31.682 60.425 L 31.682 70.213 L 24.341 70.213 L 24.341 60.425 Z  M 31.682 60.425 L 39.023 60.425 L 39.023 70.213 L 31.682 70.213 L 31.682 60.425 Z  M 19.448 50.638 L 46.364 50.638 L 46.364 60.427 L 19.448 60.427 L 19.448 50.638 Z  M 46.362 50.638 L 53.703 50.638 L 53.703 60.427 L 46.362 60.427 L 46.362 50.638 Z  M 41.469 26.169 C 54.985 26.169 65.938 15.213 65.938 1.698 C 52.425 1.698 41.469 12.654 41.469 26.169 Z  M 17 1.698 C 17 15.213 27.953 26.169 41.467 26.169 C 41.467 12.654 30.514 1.698 17 1.698 Z  M 41.469 26.169 L 41.469 50.638 L 41.469 26.169 Z " fill-rule="evenodd" fill="none"  stroke-width="2" stroke="url(#_lgradient_8)" stroke-linejoin="miter" stroke-linecap="square" stroke-miterlimit="3"/></svg>
