<?xml version="1.0" standalone="no"?><!-- Generator: Gravit.io --><svg xmlns="http://www.w3.org/2000/svg" xmlns:xlink="http://www.w3.org/1999/xlink" style="isolation:isolate" viewBox="266.5 37.5 19 19" width="19" height="19"><g id="chart-bars"><path d=" M 284 56.5 L 268 56.5 C 267.173 56.5 266.5 55.827 266.5 55 L 266.5 39 C 266.5 38.173 267.173 37.5 268 37.5 L 284 37.5 C 284.827 37.5 285.5 38.173 285.5 39 L 285.5 55 C 285.5 55.827 284.827 56.5 284 56.5 Z  M 268 38.5 C 267.724 38.5 267.5 38.724 267.5 39 L 267.5 55 C 267.5 55.276 267.724 55.5 268 55.5 L 284 55.5 C 284.276 55.5 284.5 55.276 284.5 55 L 284.5 39 C 284.5 38.724 284.276 38.5 284 38.5 L 268 38.5 Z " fill="rgb(39,150,198)"/><path d=" M 273 53.5 L 271 53.5 C 270.724 53.5 270.5 53.276 270.5 53 L 270.5 44 C 270.5 43.724 270.724 43.5 271 43.5 L 273 43.5 C 273.276 43.5 273.5 43.724 273.5 44 L 273.5 53 C 273.5 53.276 273.276 53.5 273 53.5 Z  M 271.5 52.5 L 272.5 52.5 L 272.5 44.5 L 271.5 44.5 L 271.5 52.5 Z " fill="rgb(39,150,198)"/><path d=" M 277 53.5 L 275 53.5 C 274.724 53.5 274.5 53.276 274.5 53 L 274.5 41 C 274.5 40.724 274.724 40.5 275 40.5 L 277 40.5 C 277.276 40.5 277.5 40.724 277.5 41 L 277.5 53 C 277.5 53.276 277.276 53.5 277 53.5 Z  M 275.5 52.5 L 276.5 52.5 L 276.5 41.5 L 275.5 41.5 L 275.5 52.5 Z " fill="rgb(39,150,198)"/><path d=" M 281 53.5 L 279 53.5 C 278.724 53.5 278.5 53.276 278.5 53 L 278.5 48 C 278.5 47.724 278.724 47.5 279 47.5 L 281 47.5 C 281.276 47.5 281.5 47.724 281.5 48 L 281.5 53 C 281.5 53.276 281.276 53.5 281 53.5 Z  M 279.5 52.5 L 280.5 52.5 L 280.5 48.5 L 279.5 48.5 L 279.5 52.5 Z " fill="rgb(39,150,198)"/></g></svg>