<?xml version="1.0" standalone="no"?><!-- Generator: Gravit.io --><svg xmlns="http://www.w3.org/2000/svg" xmlns:xlink="http://www.w3.org/1999/xlink" style="isolation:isolate" viewBox="266.5 7.5 19.405 19.406" width="19.405" height="19.406"><g id="cog"><path d=" M 273.835 26.906 C 273.794 26.906 273.752 26.901 273.71 26.89 C 272.812 26.659 271.949 26.303 271.146 25.831 C 270.913 25.694 270.831 25.397 270.96 25.16 C 271.119 24.868 271.203 24.538 271.203 24.203 C 271.203 23.1 270.306 22.203 269.203 22.203 C 268.869 22.203 268.538 22.287 268.246 22.446 C 268.009 22.575 267.712 22.493 267.575 22.26 C 267.103 21.456 266.747 20.594 266.516 19.696 C 266.451 19.442 266.593 19.181 266.841 19.098 C 267.655 18.824 268.203 18.062 268.203 17.203 C 268.203 16.344 267.656 15.582 266.841 15.308 C 266.593 15.224 266.451 14.964 266.516 14.71 C 266.747 13.812 267.103 12.949 267.575 12.146 C 267.712 11.913 268.009 11.831 268.246 11.96 C 268.537 12.119 268.868 12.203 269.203 12.203 C 270.306 12.203 271.203 11.306 271.203 10.203 C 271.203 9.869 271.119 9.538 270.96 9.246 C 270.831 9.009 270.913 8.712 271.146 8.575 C 271.95 8.103 272.812 7.747 273.71 7.516 C 273.964 7.451 274.225 7.593 274.308 7.841 C 274.582 8.655 275.344 9.203 276.203 9.203 C 277.062 9.203 277.824 8.656 278.098 7.841 C 278.182 7.593 278.443 7.451 278.696 7.516 C 279.594 7.747 280.457 8.103 281.26 8.575 C 281.493 8.712 281.575 9.009 281.446 9.246 C 281.287 9.538 281.203 9.868 281.203 10.203 C 281.203 11.306 282.1 12.203 283.203 12.203 C 283.537 12.203 283.868 12.119 284.16 11.96 C 284.397 11.831 284.694 11.913 284.831 12.146 C 285.303 12.95 285.659 13.812 285.89 14.71 C 285.955 14.964 285.813 15.225 285.565 15.308 C 284.751 15.582 284.203 16.344 284.203 17.203 C 284.203 18.062 284.75 18.824 285.565 19.098 C 285.813 19.182 285.955 19.442 285.89 19.696 C 285.659 20.594 285.303 21.457 284.831 22.26 C 284.694 22.493 284.397 22.575 284.16 22.446 C 283.868 22.287 283.538 22.203 283.203 22.203 C 282.1 22.203 281.203 23.1 281.203 24.203 C 281.203 24.537 281.287 24.868 281.446 25.16 C 281.575 25.397 281.493 25.694 281.26 25.831 C 280.456 26.303 279.594 26.659 278.696 26.89 C 278.442 26.955 278.181 26.813 278.098 26.565 C 277.824 25.751 277.062 25.203 276.203 25.203 C 275.344 25.203 274.582 25.75 274.308 26.565 C 274.238 26.772 274.044 26.906 273.834 26.906 L 273.835 26.906 Z  M 276.204 24.204 C 277.331 24.204 278.346 24.832 278.859 25.806 C 279.379 25.645 279.885 25.437 280.369 25.184 C 280.261 24.87 280.205 24.538 280.205 24.204 C 280.205 22.55 281.551 21.204 283.205 21.204 C 283.539 21.204 283.871 21.26 284.185 21.368 C 284.438 20.884 284.647 20.379 284.807 19.858 C 283.833 19.346 283.205 18.331 283.205 17.203 C 283.205 16.075 283.833 15.061 284.807 14.548 C 284.646 14.028 284.438 13.522 284.185 13.038 C 283.871 13.146 283.539 13.202 283.205 13.202 C 281.551 13.202 280.205 11.856 280.205 10.202 C 280.205 9.868 280.261 9.536 280.369 9.222 C 279.885 8.969 279.38 8.76 278.859 8.6 C 278.347 9.574 277.332 10.202 276.204 10.202 C 275.076 10.202 274.062 9.574 273.549 8.6 C 273.029 8.76 272.523 8.969 272.039 9.222 C 272.147 9.536 272.203 9.868 272.203 10.202 C 272.203 11.856 270.857 13.202 269.203 13.202 C 268.869 13.202 268.537 13.146 268.223 13.038 C 267.97 13.522 267.761 14.027 267.601 14.548 C 268.575 15.06 269.203 16.075 269.203 17.203 C 269.203 18.331 268.575 19.345 267.601 19.858 C 267.761 20.378 267.97 20.884 268.223 21.368 C 268.537 21.26 268.869 21.204 269.203 21.204 C 270.857 21.204 272.203 22.55 272.203 24.204 C 272.203 24.538 272.147 24.87 272.039 25.184 C 272.523 25.437 273.028 25.646 273.549 25.806 C 274.061 24.832 275.076 24.204 276.204 24.204 Z " fill="rgb(39,150,198)"/><path d=" M 276.204 20.204 C 274.55 20.204 273.204 18.858 273.204 17.204 C 273.204 15.55 274.55 14.204 276.204 14.204 C 277.858 14.204 279.204 15.55 279.204 17.204 C 279.204 18.858 277.858 20.204 276.204 20.204 Z  M 276.204 15.204 C 275.101 15.204 274.204 16.101 274.204 17.204 C 274.204 18.307 275.101 19.204 276.204 19.204 C 277.307 19.204 278.204 18.307 278.204 17.204 C 278.204 16.101 277.307 15.204 276.204 15.204 Z " fill="rgb(39,150,198)"/></g></svg>