<svg xmlns="http://www.w3.org/2000/svg" width="16" height="16" viewBox="0 0 16 16" src="https://mandarin.solutions/theme/mandarin/i/wrench.svg">
<path fill="#767d80" d="M989.715,90.376a0.472,0.472,0,0,0-.509.076l-2.519,2.263-2.275-2.333,2.253-2.6a0.476,0.476,0,0,0,.075-0.508A0.466,0.466,0,0,0,986.31,87h-0.135c-1.392,0-3.795.12-4.868,1.208l-0.216.215a4.312,4.312,0,0,0-.745,4.538l-5.767,5.886a2.038,2.038,0,0,0,0,2.855l0.7,0.714a1.974,1.974,0,0,0,2.817,0l5.853-5.9a4.392,4.392,0,0,0,1.948.495,3.81,3.81,0,0,0,2.726-1.16l0.213-.216c1.166-1.181,1.147-3.706,1.153-4.817A0.483,0.483,0,0,0,989.715,90.376Zm-1.573,4.577-0.186.216a2.835,2.835,0,0,1-2.056.838,3.584,3.584,0,0,1-1.237-.216,2.973,2.973,0,0,1-.862-0.553L977.4,101.7a0.985,0.985,0,0,1-1.408,0l-0.7-.714a1.022,1.022,0,0,1,0-1.427l6.26-6.386a3.015,3.015,0,0,1-.438-0.984h0a3.467,3.467,0,0,1,.656-3.093l0.216-.217c0.649-.659,2.334-0.853,3.267-0.91l-1.833,2.117a0.486,0.486,0,0,0,.019.654l2.9,2.972a0.47,0.47,0,0,0,.65.024l2.039-1.837A5.385,5.385,0,0,1,988.142,94.953Z" transform="translate(-974.031 -87)"></path>
</svg>
