<svg xmlns="http://www.w3.org/2000/svg" xmlns:xlink="http://www.w3.org/1999/xlink" version="1.1" x="0px" y="0px" viewBox="0 0 42 42" style="enable-background:new 0 0 42 42;" xml:space="preserve" width="512px" height="512px">
    <g fill="#fff">
<path class="arr" d="M31.586,21.8c0.444-0.444,0.444-1.143,0-1.587c-0.429-0.444-1.143-0.444-1.571,0l-8.047,8.032V1.706  c0-0.619-0.492-1.127-1.111-1.127c-0.619,0-1.127,0.508-1.127,1.127v26.539l-8.031-8.032c-0.444-0.444-1.159-0.444-1.587,0  c-0.444,0.444-0.444,1.143,0,1.587l9.952,9.952c0.429,0.429,1.143,0.429,1.587,0L31.586,21.8z" />
	<path style="transform: scale(.085);" d="M484.834,341.917c0-15.444-24.132-15.444-24.132,0c0,21.236,0,42.472,0,63.708c0,17.375,0.965,33.785-21.236,35.715    c-33.785,2.896-69.5,0-103.285,0c-94.597,0-189.195,0-282.827,0c-2.896,0-6.757,0.965-9.653,0    c-16.41-2.896-17.375-15.444-17.375-27.993c0-24.132,0-47.299,0-71.431c0-15.444-24.132-15.444-24.132,0    c0,39.576-16.41,118.729,40.542,123.556c31.854,2.896,64.674,0,96.528,0c100.389,0,201.744,4.826,302.133,0    C502.209,462.577,484.834,381.493,484.834,341.917z" />

    </g>
</svg>
