<?xml version="1.0" standalone="no"?><!-- Generator: Gravit.io --><svg xmlns="http://www.w3.org/2000/svg" xmlns:xlink="http://www.w3.org/1999/xlink" style="isolation:isolate" viewBox="206.5 37.5 19.001 12.999" width="19.001" height="12.999"><path d=" M 225.158 40.525 L 216.158 37.525 C 216.055 37.491 215.944 37.491 215.842 37.525 L 206.842 40.525 C 206.638 40.594 206.5 40.784 206.5 41 C 206.5 41.215 206.638 41.406 206.842 41.474 L 209.5 42.36 L 209.5 45 C 209.5 45.132 209.553 45.259 209.646 45.354 C 209.734 45.442 211.84 47.5 216 47.5 C 217.513 47.5 218.924 47.228 220.195 46.691 C 220.449 46.584 220.568 46.29 220.461 46.036 C 220.354 45.782 220.06 45.663 219.806 45.77 C 218.659 46.255 217.379 46.5 216.001 46.5 C 214.056 46.5 212.625 45.996 211.767 45.573 C 211.132 45.261 210.707 44.945 210.501 44.775 L 210.501 42.694 L 215.843 44.475 C 215.894 44.492 215.948 44.501 216.001 44.501 C 216.054 44.501 216.108 44.492 216.159 44.475 L 221.501 42.694 L 221.501 43.585 C 220.919 43.792 220.501 44.348 220.501 45 C 220.501 45.611 220.868 46.137 221.393 46.371 L 220.516 49.879 C 220.479 50.028 220.512 50.186 220.607 50.308 C 220.702 50.429 220.847 50.5 221.001 50.5 L 223.001 50.5 C 223.155 50.5 223.3 50.429 223.395 50.308 C 223.49 50.186 223.523 50.027 223.486 49.879 L 222.609 46.371 C 223.134 46.137 223.501 45.611 223.501 45 C 223.501 44.348 223.083 43.792 222.501 43.585 L 222.501 42.36 L 225.159 41.474 C 225.363 41.406 225.501 41.215 225.501 41 C 225.501 40.785 225.363 40.594 225.159 40.526 L 225.158 40.525 Z  M 222 44.5 C 222.276 44.5 222.5 44.724 222.5 45 C 222.5 45.275 222.276 45.5 222 45.5 C 221.724 45.5 221.5 45.275 221.5 45 C 221.5 44.724 221.724 44.5 222 44.5 Z  M 221.64 49.5 L 222 48.061 L 222.36 49.5 L 221.641 49.5 L 221.64 49.5 Z  M 221.96 41.485 L 216.083 40.506 C 215.81 40.46 215.553 40.645 215.508 40.917 C 215.463 41.189 215.647 41.447 215.919 41.491 L 219.933 42.161 L 216.001 43.472 L 208.582 40.999 L 216.001 38.525 L 223.42 40.999 L 221.961 41.485 L 221.96 41.485 Z " fill="rgb(39,150,198)"/></svg>