<?xml version="1.0" encoding="iso-8859-1"?>
<svg version="1.1" xmlns="http://www.w3.org/2000/svg" xmlns:xlink="http://www.w3.org/1999/xlink" width="21" height="21" x="0px" y="0px"
	 viewBox="0 0 490 490">
<g>
	<path d="M45.402,356.628h51.435c24.776,0,44.927-20.151,44.927-44.927V193.091c0-24.776-20.151-44.927-44.927-44.927H73.454
		C83.989,81.983,154.304,30.625,239.38,30.625c85.076,0,155.407,51.358,165.942,117.554h-12.189
		c-24.76,0-44.927,20.151-44.927,44.927v118.611c0,24.76,20.151,44.927,44.927,44.927h10.213
		c-2.465,20.702-9.8,37.409-22.433,49.398c-27.073,25.694-69.442,23.734-70.728,23.719h-16.354
		c-0.26-24.546-20.258-44.452-44.866-44.452h-35.632c-24.776,0-44.927,20.151-44.927,44.927v14.884
		c0.015,24.73,20.167,44.881,44.942,44.881h35.632c19.386,0,35.785-12.418,42.063-29.645l18.237-0.015
		c0.337,0.031,1.868,0.107,4.318,0.107c13.751,0,56.901-2.511,88.185-31.988c18.972-17.885,29.859-42.017,32.6-71.816h10.198
		c24.76,0,44.927-20.151,44.927-44.927V193.106c0-24.776-20.151-44.927-44.927-44.927h-8.192C426.07,65.048,341.668,0,239.38,0
		C136.986,0,52.476,65.201,42.339,148.501C19.018,150.108,0.49,169.387,0.49,193.106v118.611
		C0.475,336.477,20.626,356.628,45.402,356.628z M263.253,445.073c0,7.886-6.401,14.302-14.286,14.302h-35.632
		c-7.871,0-14.287-6.416-14.287-14.302v-14.884c0-7.886,6.416-14.302,14.302-14.302h35.632c7.886,0,14.286,6.416,14.286,14.302
		v14.884H263.253z M458.87,193.106v118.611c0,7.886-6.416,14.302-14.302,14.302h-51.419c-7.886,0-14.302-6.416-14.302-14.302
		V193.106c0-7.886,6.416-14.302,14.302-14.302h51.419C452.454,178.804,458.87,185.22,458.87,193.106z M31.1,193.106
		c0-7.886,6.416-14.302,14.302-14.302h51.435c7.886,0,14.302,6.416,14.302,14.302v118.611c0,7.886-6.416,14.302-14.302,14.302
		H45.402c-7.886,0-14.302-6.416-14.302-14.302V193.106z"/>
</g>
</svg>
