<svg id="Слой_1" data-name="Слой 1" xmlns="http://www.w3.org/2000/svg" viewBox="0 0 18.72 23.04"><defs><style>.cls-1,.cls-2{fill:none;}.cls-2{fill-rule:evenodd;}</style></defs><title>lock</title><path class="cls-1" d="M14.4,9.36a.72.72,0,0,1-.72-.72V5.89A4.26,4.26,0,0,0,9.33,1.44,4.23,4.23,0,0,0,5,5.89V8.64a.72.72,0,1,1-1.44,0V5.89A5.67,5.67,0,0,1,9.33,0a5.69,5.69,0,0,1,5.79,5.89V8.64A.72.72,0,0,1,14.4,9.36Z"/><path class="cls-1" d="M15.84,23h-13A2.88,2.88,0,0,1,0,20.16V11.52A2.88,2.88,0,0,1,2.88,8.64h13a2.88,2.88,0,0,1,2.88,2.88v8.64A2.88,2.88,0,0,1,15.84,23Zm-13-13a1.44,1.44,0,0,0-1.44,1.44v8.64A1.44,1.44,0,0,0,2.88,21.6h13a1.44,1.44,0,0,0,1.44-1.44V11.52a1.44,1.44,0,0,0-1.44-1.44Z"/><path class="cls-2" d="M9.36,13A1.44,1.44,0,1,1,7.92,14.4,1.44,1.44,0,0,1,9.36,13Z"/><path class="cls-2" d="M9.36,14.4a.72.72,0,0,1,.72.72V18a.72.72,0,0,1-1.44,0V15.12A.72.72,0,0,1,9.36,14.4Z"/></svg>