<svg class="logo" xmlns="http://www.w3.org/2000/svg" viewBox="0 0 758.21 714.3" data-href="https://mandarin.solutions">
                <g class="gohome">
                       <path fill="#fff" class="m fw" d="M380.95,421a37.37,37.37,0,0,1-37.37-37.37V266.85c0-34.21-13.68-56.84-44.73-56.84-30,0-46.84,27.89-46.84,57.36V383.66A37.37,37.37,0,0,1,214.64,421h-1.05a37.37,37.37,0,0,1-37.37-37.37V182.09A35.76,35.76,0,0,1,212,146.33h0.61a35.76,35.76,0,0,1,35.2,29.47h0c16.31-28.42,46.31-35.26,68.42-35.26,28.42,0,58.94,10.53,75.78,48.42C415.15,153.7,439.89,140,478.31,140,532.51,140,582,167.38,582,264.22V383.66A37.37,37.37,0,0,1,544.62,421H543a37.37,37.37,0,0,1-37.37-37.37V265.79c0-32.63-8.95-54.21-39.47-54.21-30,0-43.28,25.79-43.28,55.26V383.66A37.35,37.35,0,0,1,385.58,421h-4.63Z"></path>

                       <g fill="#fff" class="leavs">
                           <path class="fg l1" d="M400.52,119.27l-10.41,20.56-31-76.25s13.88,53.2,20.32,78.26l-18.75-9.49A86.55,86.55,0,0,1,322.57,16.29h0A29.68,29.68,0,0,1,362.46,3.2h0A86.37,86.37,0,0,1,400.52,119.27Z"></path>
                           <path class="fg l2" d="M431.11,126l-15.78-2.19,42.89-37.4s-31.67,21-46.61,30.83l2-14.39A59.7,59.7,0,0,1,481,51.93h0a20.51,20.51,0,0,1,17.5,23.14h0A59.7,59.7,0,0,1,431.11,126Z"></path>
                       </g>

                       <g class="mandarin" fill-opacity="0">
                           <path class="fw" d="M91.68,627.46A8.57,8.57,0,0,1,83,618.81V562.94l-25.6,38.57a8.83,8.83,0,0,1-14.53,0L17.3,562.94v55.87a8.57,8.57,0,0,1-8.65,8.65A8.56,8.56,0,0,1,0,618.81V534.39a8.66,8.66,0,0,1,6.23-8.3,8.88,8.88,0,0,1,9.69,3.46l34.25,52.24,34.25-52.24a8.88,8.88,0,0,1,9.69-3.46,8.67,8.67,0,0,1,6.23,8.3v84.42A8.57,8.57,0,0,1,91.68,627.46Z"></path>
                           <path class="fw" d="M203.78,615.52a8.59,8.59,0,0,1-4.67,11.24,8.45,8.45,0,0,1-11.25-4.67L181.12,606H140.64l-6.75,16.09a8.63,8.63,0,0,1-8,5.36,8.51,8.51,0,0,1-8-11.93l34.94-84.42a8.58,8.58,0,0,1,15.91,0ZM147.9,588.71h25.95l-13-31.83Z"></path>
                           <path class="fw" d="M299.27,627.46a8.27,8.27,0,0,1-6.57-3.11l-54-66.08v60.54a8.65,8.65,0,0,1-17.3,0V534.39a8.61,8.61,0,0,1,15.22-5.53l54,66.08V534.39a8.65,8.65,0,1,1,17.3,0v84.42a8.58,8.58,0,0,1-5.71,8.13A8.78,8.78,0,0,1,299.27,627.46Z"></path>
                           <path class="fw" d="M368.47,626.77H340.79a8.56,8.56,0,0,1-8.65-8.65v-83a8.56,8.56,0,0,1,8.65-8.65h27.68A50.16,50.16,0,0,1,368.47,626.77Zm-19-17.3h19a32.87,32.87,0,0,0,0-65.74h-19v65.74Z"></path>
                           <path class="fw" d="M514,615.52a8.59,8.59,0,0,1-4.67,11.24A8.45,8.45,0,0,1,498,622.1L491.29,606H450.81l-6.75,16.09a8.63,8.63,0,0,1-8,5.36,8.51,8.51,0,0,1-8-11.93l34.94-84.42a8.58,8.58,0,0,1,15.91,0Zm-55.87-26.81H484l-13-31.83Z"></path>
                           <path class="fw" d="M588.51,584.56L603.91,615a8.75,8.75,0,0,1-4,11.59,10.14,10.14,0,0,1-3.8.86,8.73,8.73,0,0,1-7.78-4.84l-18.86-37.36H548.9v33.56a8.65,8.65,0,0,1-17.3,0V535.09a8.57,8.57,0,0,1,8.65-8.65h41.52A29.46,29.46,0,0,1,588.51,584.56Zm5.36-28.72a12,12,0,0,0-12.11-12.11H548.9V568h32.87A12,12,0,0,0,593.87,555.84Z"></path>
                           <path class="fw" d="M638.85,627.46a8.56,8.56,0,0,1-8.65-8.65V534.39a8.65,8.65,0,1,1,17.3,0v84.42A8.57,8.57,0,0,1,638.85,627.46Z"></path>
                           <path class="fw" d="M749.56,627.46a8.27,8.27,0,0,1-6.57-3.11l-54-66.08v60.54a8.65,8.65,0,0,1-17.3,0V534.39a8.61,8.61,0,0,1,15.22-5.53l54,66.08V534.39a8.65,8.65,0,1,1,17.3,0v84.42a8.58,8.58,0,0,1-5.71,8.13A8.78,8.78,0,0,1,749.56,627.46Z"></path>
                       </g>


                       <g class="solutions" fill-opacity="0">
                           <path class="fw" d="M128.48,704.18a4.62,4.62,0,0,1,6.11-1.56,17.51,17.51,0,0,0,8.56,2.34c3.11,0,5.8-1.38,5.8-4,0-6.57-21.45-5.71-21.45-19.9,0-8.22,7.35-13,16.87-13a24.39,24.39,0,0,1,10.84,2.36,4.65,4.65,0,0,1,2.15,6.26v0a4.69,4.69,0,0,1-6.12,2.12,17.39,17.39,0,0,0-6.94-1.43c-2.86,0-5.62,1.21-5.62,4,0,6.23,21.45,5.45,21.45,19.64,0,7.35-6.4,13.24-16.87,13.24A25.84,25.84,0,0,1,130,710.74a4.66,4.66,0,0,1-1.52-6.56h0Z"></path>
                           <path class="fw" d="M207.16,668.11c13.5,0,24.31,9.6,24.31,23.1s-10.81,23.1-24.22,23.1-24.31-9.51-24.31-23.1S193.75,668.11,207.16,668.11ZM207.25,705c7.09,0,13.06-5.54,13.06-13.75s-6-13.76-13.06-13.76-13.15,5.62-13.15,13.76S200.07,705,207.25,705Z"></path>
                           <path class="fw" d="M262.43,651.84h0a5.45,5.45,0,0,1,5.45,5.45v40.58c0,4.84,1.64,6.05,4.5,6.05h0.36a4.88,4.88,0,0,1,4.76,4.88h0a4.89,4.89,0,0,1-4.89,4.89h-2.05c-6.06,0-13.58-1.56-13.58-14.19V657.29A5.45,5.45,0,0,1,262.43,651.84Z"></path>
                           <path class="fw" d="M304.34,669.14h0a5.49,5.49,0,0,1,5.49,5.49v20.63c0,5.37,1.38,9,6.83,9,8,0,12.37-7,12.37-14.88V674.63a5.49,5.49,0,0,1,5.49-5.49h0a5.49,5.49,0,0,1,5.49,5.49v33.61a5,5,0,0,1-5,5h-0.52a5,5,0,0,1-5-5h0a27.79,27.79,0,0,1,.17-3.12h-0.17a17,17,0,0,1-15.31,9.17c-9.43,0-15.31-4.76-15.31-16.78V674.63A5.49,5.49,0,0,1,304.34,669.14Z"></path>
                           <path class="fw" d="M371.32,678.57H370a4.37,4.37,0,0,1-4.37-4.37h0a4.37,4.37,0,0,1,4.37-4.37h1.6v-7.35a5.36,5.36,0,0,1,5.36-5.36h0a5.36,5.36,0,0,1,5.36,5.36v7.35H388a4.37,4.37,0,0,1,4.37,4.37h0a4.37,4.37,0,0,1-4.37,4.37h-5.67V695.7C382.31,703,388,704,391,704h0a4.72,4.72,0,0,1,4.76,4.7V709a4.72,4.72,0,0,1-4.57,4.7l-1.62,0c-6.14,0-18.34-1.82-18.34-16.61V678.57Z"></path>
                           <path class="fw" d="M424.22,651.84h1.12a4.89,4.89,0,0,1,4.89,4.89h0a4.89,4.89,0,0,1-4.89,4.89h-1.12a4.89,4.89,0,0,1-4.89-4.89h0A4.89,4.89,0,0,1,424.22,651.84Zm0.6,17.3h0a5.49,5.49,0,0,1,5.49,5.49v33.14a5.49,5.49,0,0,1-5.49,5.49h0a5.49,5.49,0,0,1-5.49-5.49V674.63A5.49,5.49,0,0,1,424.82,669.14Z"></path>
                           <path class="fw" d="M480.66,668.11c13.5,0,24.31,9.6,24.31,23.1s-10.81,23.1-24.22,23.1-24.31-9.51-24.31-23.1S467.25,668.11,480.66,668.11ZM480.75,705c7.09,0,13.06-5.54,13.06-13.75s-6-13.76-13.06-13.76-13.15,5.62-13.15,13.76S473.56,705,480.75,705Z"></path>
                           <path class="fw" d="M536.19,669.14h0.34a5.11,5.11,0,0,1,5.11,5.11h0a27.12,27.12,0,0,1-.17,3h0.17a17.11,17.11,0,0,1,15.66-9.17c9.77,0,15.31,5.1,15.31,16.78v22.93a5.45,5.45,0,0,1-5.45,5.45h0a5.45,5.45,0,0,1-5.45-5.45V687.14c0-5.36-1.38-9-7-9-5.88,0-10.21,3.72-11.85,9a18.65,18.65,0,0,0-.78,5.89v14.79a5.45,5.45,0,0,1-5.45,5.45h-0.09a5.45,5.45,0,0,1-5.45-5.45V674.25A5.11,5.11,0,0,1,536.19,669.14Z"></path>
                           <path class="fw" d="M600.05,704.18a4.62,4.62,0,0,1,6.11-1.56,17.51,17.51,0,0,0,8.56,2.34c3.11,0,5.8-1.38,5.8-4,0-6.57-21.45-5.71-21.45-19.9,0-8.22,7.35-13,16.87-13a24.39,24.39,0,0,1,10.84,2.36,4.65,4.65,0,0,1,2.15,6.26v0a4.69,4.69,0,0,1-6.12,2.12,17.4,17.4,0,0,0-6.94-1.43c-2.86,0-5.62,1.21-5.62,4,0,6.23,21.46,5.45,21.46,19.64,0,7.35-6.4,13.24-16.87,13.24a25.84,25.84,0,0,1-13.24-3.56,4.66,4.66,0,0,1-1.52-6.56h0Z"></path>
                       </g>
                  </g>
            </svg>
