<svg xmlns="http://www.w3.org/2000/svg" width="13" height="17.312" viewBox="0 0 13 17.312" src="https://mandarin.solutions/theme/mandarin/i/pointer.svg">
<path fill="#767d80" d="M1123.56,86.919c3.7,0,5.35,2.776,5.35,5.528,0,2.424-1.72,5.642-5.13,9.564-0.02.019-.05,0.041-0.07,0.058a0.435,0.435,0,0,1-.08-0.058l-0.28-.326c-2.22-2.551-5.27-6.045-5.27-9.238a5.578,5.578,0,0,1,5.48-5.528m0-1.083a6.677,6.677,0,0,0-6.56,6.611c0,3.754,3.48,7.593,5.83,10.291a1.334,1.334,0,0,0,.86.432h0.04a1.329,1.329,0,0,0,.85-0.432c2.2-2.531,5.42-6.7,5.42-10.291s-2.35-6.611-6.44-6.611h0Zm-0.07,4.34a2.179,2.179,0,0,1,.03,4.357,2.215,2.215,0,0,1-2.2-2.191,2.175,2.175,0,0,1,2.17-2.167m0.03-1.059a3.25,3.25,0,1,0,3.25,3.25,3.247,3.247,0,0,0-3.25-3.25h0Z" transform="translate(-1117 -85.844)"></path>
</svg>
