<svg xmlns="http://www.w3.org/2000/svg" viewBox="0 0 500 500" width="24">

<g>
    <path d="M308.6,433.9H386V334.2a9.64,9.64,0,0,1,17.5-5.6,43.1,43.1,0,1,0,0-49.6,9.64,9.64,0,0,1-17.5-5.6V173.7H286.3a9.64,9.64,0,0,1-5.6-17.5,43.1,43.1,0,1,0-49.6,0,9.64,9.64,0,0,1-5.6,17.5H126v99.7a9.64,9.64,0,0,1-17.5,5.6,43.1,43.1,0,1,0,0,49.6,9.64,9.64,0,0,1,17.5,5.6v99.7h77.4a62.2,62.2,0,1,1,105.2,0Zm87,19.2H286.3a9.64,9.64,0,0,1-5.6-17.5,43.1,43.1,0,1,0-49.6,0,9.64,9.64,0,0,1-5.6,17.5H116.4a9.6,9.6,0,0,1-9.6-9.6V356.4a62.3,62.3,0,1,1,0-105V164.3a9.6,9.6,0,0,1,9.6-9.6h87.1a62.3,62.3,0,1,1,105,0h87.1a9.6,9.6,0,0,1,9.6,9.6v87.1a62.3,62.3,0,1,1,0,105v87.1a9.6,9.6,0,0,1-9.6,9.6Z"/>
</g>
</svg>
