<svg xmlns="http://www.w3.org/2000/svg" viewBox="0 0 56.41 56.4" width="20">
<g>
    <path d="M54.6,32.87l-1.44-.28a2,2,0,0,1-1.22-3.1l.91-1.24a1,1,0,0,0-.1-1.3l-2-2a1,1,0,0,0-1.27-.12l-1.22.82a2,2,0,0,1-3.06-1.33L45,22.85A1,1,0,0,0,44,22H41.26a1,1,0,0,0-1,.81l-.36,1.86a2,2,0,0,1-3,1.26l-1.57-1.06A1,1,0,0,0,34,25l-2,2a1,1,0,0,0-.1,1.3l.91,1.24a2,2,0,0,1-1.22,3.1l-1.44.28a1,1,0,0,0-.81,1v2.77a1,1,0,0,0,.85,1l1.52.23a2,2,0,0,1,1.33,3.06l-.82,1.22a1,1,0,0,0,.12,1.27l2,2a1,1,0,0,0,1.3.1l1.24-.91A2,2,0,0,1,40,45.75l.28,1.44a1,1,0,0,0,1,.81H44a1,1,0,0,0,1-.85l.16-1.06a2,2,0,0,1,3.11-1.29l.87.64a1,1,0,0,0,1.3-.1l2-2a1,1,0,0,0,.12-1.27l-.82-1.22a2,2,0,0,1,1.33-3.06l1.51-.23a1,1,0,0,0,.85-1V33.85A1,1,0,0,0,54.6,32.87Zm-1.19,2.89-.67.1A4,4,0,0,0,50.06,42l.36.53-.77.77-.18-.13a4,4,0,0,0-6.27,2.6l0,.22H42.09L42,45.37a4,4,0,0,0-6.25-2.45l-.54.4-.77-.77.36-.53a4,4,0,0,0-2.68-6.15l-.67-.1V34.68l.63-.12a4,4,0,0,0,2.45-6.25l-.4-.55.77-.77.89.6a4,4,0,0,0,6.13-2.54l.2-1.05h1.08l.1.67a4,4,0,0,0,6.15,2.68L50,27l.77.77-.4.54a4,4,0,0,0,2.45,6.25l.63.12v1.09Z" transform="translate(0 -0.01)"/><path d="M42.41,30a5,5,0,1,0,5,5A5,5,0,0,0,42.41,30Zm0,8a3,3,0,1,1,3-3A3,3,0,0,1,42.41,38Z" transform="translate(0 -0.01)"/><path d="M42.43,16.88a3.94,3.94,0,1,0-3.94-3.93A3.94,3.94,0,0,0,42.43,16.88Zm0-5.87a1.94,1.94,0,1,1-1.94,1.94A1.94,1.94,0,0,1,42.43,11Z" transform="translate(0 -0.01)"/><path d="M45.3,0h-14L6,25.22H6l-6,6L25.13,56.41,32.85,49l-24-23.79L32.12,2H44.47l9.94,9.92v12.9h2V11.1ZM30,49l-4.82,4.61L2.83,31.22l4.6-4.58Z" transform="translate(0 -0.01)"/>
</g>
</svg>
