<svg xmlns="http://www.w3.org/2000/svg" viewBox="0 0 57.42 56.4" width="20">

<g>
    <path d="M53.42,31.51v-1a7,7,0,0,0-14,0v1h-4v18h22v-18Zm-12-1a5,5,0,0,1,10,0v1h-10Zm14,17h-18v-14h18Z" transform="translate(0 -0.51)"/><path d="M46.42,36.51a4,4,0,0,0-1,7.86v1.14a1,1,0,0,0,2,0V44.37a4,4,0,0,0-1-7.86Zm0,6a2,2,0,1,1,2-2A2,2,0,0,1,46.42,42.51Z" transform="translate(0 -0.51)"/><path d="M38.49,13.68a3.94,3.94,0,1,0,3.94-3.94A3.94,3.94,0,0,0,38.49,13.68Zm5.87,0a1.94,1.94,0,1,1-1.94-1.93A1.94,1.94,0,0,1,44.37,13.68Z" transform="translate(0 -0.51)"/><path d="M32.12,2.51H44.47l9.94,9.92v12.9h2V11.6L45.3.51h-14L6,25.72H6l-6,6L25.13,56.91l7.72-7.39-24-23.79ZM30,49.49l-4.82,4.61L2.83,31.72l4.6-4.58Z" transform="translate(0 -0.51)"/>
</g>
</svg>
