<svg xmlns="http://www.w3.org/2000/svg" width="20" viewBox="0 0 52 52" src="https://desk.mandarin.solutions/mandarin/i/tickets.svg">
  <g fill="#819195">
      <path d="M2378.75,489.5h-11.38v-3.25h11.38v-26h-13v-13h-17.88a3.255,3.255,0,0,1,3.26-3.25H2369l13,13V486.25A3.253,3.253,0,0,1,2378.75,489.5ZM2369,448.6V457h8.4Zm-19.22,5.154,11.1,11.1v27.9h-27.63v-39h16.53m1.35-3.25h-17.88a3.253,3.253,0,0,0-3.25,3.25v39a3.253,3.253,0,0,0,3.25,3.25h27.63a3.245,3.245,0,0,0,3.24-3.25V463.5l-12.99-13h0Zm11.37,16.25h-14.63V452.125h3.26V463.5h11.37v3.25Z" transform="translate(-2330 -444)"></path>
  </g>
</svg>
