<?xml version="1.0" encoding="utf-8"?>
<svg version="1.1" id="Layer_1" xmlns="http://www.w3.org/2000/svg" xmlns:xlink="http://www.w3.org/1999/xlink" x="0px" y="0px"
	 viewBox="0 0 256 256" style="enable-background:new 0 0 256 256;" width="15" height="15">
<g>
	<path d="M213.5,247C213.5,246.9,213.4,246.9,213.5,247L213.5,247L213.5,247z"/>
	<path d="M31.8,83.7C31.8,83.7,31.8,83.7,31.8,83.7L31.8,83.7L31.8,83.7z"/>
	<path d="M245.3,149.3H213c0.2-3.5,0.2-7.1,0.2-10.7c0-3.3-0.1-6.4-0.2-9.5c27.6-13.2,32-41,32.2-42.2l0,0c0.1-0.5,0.1-1,0.1-1.6
		c0-5.9-4.8-10.7-10.7-10.7c-5.3,0-9.8,4-10.5,9.1c0,0.2-2.1,13.3-14.1,22.3C204.1,79,190.2,60.7,169.7,51l20.9-34.9l0,0
		c1-1.6,1.5-3.5,1.5-5.5c0-5.9-4.8-10.7-10.7-10.7c-3.9,0-7.3,2.1-9.1,5.2l0,0l-23.5,39.2c-6.5-1.2-13.4-1.8-20.8-1.8
		c-7.3,0-14.2,0.6-20.7,1.8L83.8,5.2l0,0C81.9,2.1,78.5,0,74.7,0C68.8,0,64,4.8,64,10.7c0,2,0.6,3.9,1.5,5.5l0,0L86.3,51
		c-20.6,9.7-34.5,28-40.4,55.1c-11.4-8.6-13.8-21-14.1-22.3h0c-0.8-5.1-5.2-9.1-10.5-9.1c-5.9,0-10.7,4.8-10.7,10.7
		c0,0.5,0.1,1,0.1,1.6l0,0c0.2,1.2,4.6,29,32.2,42.2c-0.2,3.1-0.2,6.3-0.2,9.5c0,3.6,0.1,7.1,0.2,10.7H10.7
		C4.8,149.3,0,154.1,0,160s4.8,10.7,10.7,10.7h34.3c1.6,11.2,4.2,21.7,7.8,31.3c-26.8,13.4-31.1,40.6-31.3,41.8h0
		c-0.1,0.5-0.1,1-0.1,1.6c0,5.9,4.8,10.7,10.7,10.7c5.4,0,9.8-4,10.5-9.1h0c0-0.2,2.7-17.2,19.6-25.8C75.9,242.6,97.3,256,128,256
		c30.7,0,52.1-13.3,65.8-34.9c16.2,8.2,19.4,24.4,19.6,25.8h0c0.8,5.1,5.2,9.1,10.5,9.1c5.9,0,10.7-4.8,10.7-10.7
		c0-0.5,0-1.1-0.1-1.6h0c-0.2-1.2-4.5-28.4-31.3-41.8c3.6-9.6,6.2-20.1,7.8-31.3h34.3c5.9,0,10.7-4.8,10.7-10.7
		C256,154.1,251.2,149.3,245.3,149.3z M117.3,233.9c-15.9-2.3-28.1-10.2-36.9-23.9c-10.7-16.6-16.4-41.3-16.4-71.4
		c0-7.7,0.5-14.8,1.5-21.3h51.8L117.3,233.9L117.3,233.9z M71.3,96c2.5-5.9,5.8-11,9.6-15.2C91.2,69.7,107,64,128,64
		s36.8,5.7,47,16.8c3.9,4.2,7.1,9.3,9.6,15.2H71.3z M175.5,210c-8.8,13.7-20.9,21.5-36.9,23.9V117.3h51.8c1,6.5,1.5,13.6,1.5,21.3
		C191.9,168.8,186.3,193.4,175.5,210z"/>

</g>
</svg>
