<svg id="Layer_1" data-name="Layer 1" xmlns="http://www.w3.org/2000/svg" viewBox="0 0 512 488.4" width="22">
    <g>
        <path d="M437.33,137.53H74.67A74.75,74.75,0,0,0,0,212.2V425.53A74.75,74.75,0,0,0,74.67,500.2H437.33A74.75,74.75,0,0,0,512,425.53V212.2A74.75,74.75,0,0,0,437.33,137.53Zm53.33,288a53.39,53.39,0,0,1-53.33,53.33H74.67a53.39,53.39,0,0,1-53.33-53.33V212.2a53.39,53.39,0,0,1,53.33-53.33H437.33a53.39,53.39,0,0,1,53.33,53.33Z" transform="translate(0 -11.8)"/><path d="M416,286.87a32,32,0,1,0,32,32A32,32,0,0,0,416,286.87Zm0,42.67a10.67,10.67,0,1,1,10.67-10.67A10.68,10.68,0,0,1,416,329.53Z" transform="translate(0 -11.8)"/><path d="M501.33,244.2H416a74.67,74.67,0,1,0,0,149.33h85.33A10.67,10.67,0,0,0,512,382.87v-128A10.67,10.67,0,0,0,501.33,244.2Zm-10.67,128H416a53.33,53.33,0,0,1,0-106.67h74.67Z" transform="translate(0 -11.8)"/><path d="M436.2,143.42,391,53.1A74.68,74.68,0,0,0,288.85,20.75L69.61,138.81a10.66,10.66,0,1,0,10.11,18.77L299,39.57a53.29,53.29,0,0,1,73,23.08L417.13,153a10.67,10.67,0,0,0,19.07-9.56Z" transform="translate(0 -11.8)"/><path d="M393.41,57.83a10.7,10.7,0,0,0-14.46-4.35L220.46,138.81a10.67,10.67,0,0,0,5.06,20.05,10.89,10.89,0,0,0,5.08-1.26L389.08,72.27A10.66,10.66,0,0,0,393.41,57.83Z" transform="translate(0 -11.8)"/><path d="M192,73.53H117.33A117.47,117.47,0,0,0,0,190.87V212.2a10.67,10.67,0,0,0,21.33,0V190.87a96.12,96.12,0,0,1,96-96H192a10.67,10.67,0,1,0,0-21.33Z" transform="translate(0 -11.8)"/><path d="M394.67,73.53a10.67,10.67,0,0,0,0,21.33,96.12,96.12,0,0,1,96,96V212.2a10.67,10.67,0,1,0,21.33,0V190.87A117.47,117.47,0,0,0,394.67,73.53Z" transform="translate(0 -11.8)"/>
    </g>
</svg>
